<?xml version="1.0" standalone="no"?>
<!DOCTYPE svg PUBLIC "-//W3C//DTD SVG 20010904//EN"
 "http://www.w3.org/TR/2001/REC-SVG-20010904/DTD/svg10.dtd">
<svg version="1.0" xmlns="http://www.w3.org/2000/svg"
 width="2480.000000pt" height="2480.000000pt" viewBox="0 0 2480.000000 2480.000000"
 preserveAspectRatio="xMidYMid meet">

<g transform="translate(0.000000,2480.000000) scale(0.100000,-0.100000)"
fill="#000000" stroke="none">
<path d="M11995 24739 c-77 -4 -237 -13 -355 -19 -368 -19 -515 -32 -925 -81
-210 -25 -407 -53 -556 -79 -63 -11 -143 -25 -179 -30 -198 -32 -859 -179
-995 -221 -30 -9 -222 -63 -280 -79 -100 -26 -545 -170 -590 -190 -11 -5 -58
-22 -105 -38 -99 -35 -443 -170 -527 -208 -32 -14 -85 -38 -118 -53 -33 -15
-80 -36 -105 -47 -25 -10 -169 -80 -320 -156 -874 -434 -1706 -984 -2485
-1644 -303 -256 -485 -424 -790 -729 -365 -364 -538 -553 -861 -940 -421 -505
-913 -1214 -1206 -1735 -14 -25 -36 -63 -48 -85 -126 -219 -369 -700 -490
-970 -12 -27 -32 -72 -45 -100 -12 -27 -50 -120 -84 -205 -35 -85 -67 -166
-73 -180 -48 -113 -166 -449 -231 -655 -23 -70 -94 -316 -117 -400 -14 -50
-60 -226 -81 -305 -37 -142 -93 -386 -138 -605 -17 -82 -35 -170 -41 -195 -18
-80 -76 -429 -104 -625 -34 -234 -43 -343 -73 -880 -13 -228 -15 -1258 -3
-1490 6 -121 15 -308 21 -415 20 -397 41 -650 69 -835 5 -33 16 -105 25 -160
45 -297 112 -638 180 -925 15 -63 31 -131 35 -150 24 -109 144 -538 192 -690
118 -372 280 -822 357 -993 10 -23 44 -102 76 -176 31 -74 74 -172 96 -219 21
-46 39 -86 39 -88 0 -7 232 -470 267 -534 16 -30 49 -91 73 -135 357 -667 939
-1499 1479 -2115 389 -443 792 -850 1236 -1249 287 -258 705 -591 1060 -846
347 -248 850 -565 1190 -750 39 -21 111 -60 160 -87 179 -98 558 -281 795
-385 69 -30 139 -61 155 -68 17 -7 77 -32 135 -55 58 -23 114 -46 125 -50 244
-99 772 -279 1030 -350 330 -91 627 -163 886 -214 109 -22 170 -33 419 -77 50
-9 133 -20 350 -50 41 -5 113 -14 160 -19 47 -6 123 -14 170 -20 47 -6 146
-17 220 -25 74 -8 173 -20 220 -26 321 -41 1037 -41 1800 0 113 6 293 16 400
21 378 19 680 49 980 96 423 67 835 156 1315 284 299 80 891 274 1100 360 11
5 101 41 200 80 159 64 234 96 405 172 119 52 304 142 490 236 208 106 259
133 385 205 39 22 90 51 115 65 593 333 1400 911 2015 1446 430 374 974 918
1304 1306 40 47 94 110 120 140 256 297 621 791 888 1202 96 147 333 535 333
544 0 2 11 21 23 42 13 20 46 78 72 127 27 50 64 117 82 150 39 69 343 680
343 689 0 3 14 36 31 73 212 463 429 1062 579 1598 22 77 44 154 49 170 10 32
67 265 100 405 29 125 97 466 121 610 11 69 25 150 30 180 31 174 83 602 110
905 17 195 36 540 49 925 9 233 -3 748 -23 1055 -3 44 -8 121 -11 170 -21 348
-97 986 -160 1330 -9 50 -21 114 -26 143 -44 247 -88 452 -165 772 -20 80 -40
159 -45 175 -5 17 -30 104 -55 195 -25 91 -57 201 -71 245 -42 133 -120 367
-136 410 -8 22 -27 74 -42 115 -15 41 -30 84 -35 95 -5 11 -27 70 -50 130 -23
61 -50 128 -60 150 -10 22 -43 100 -75 174 -31 74 -74 172 -96 219 -21 46 -39
86 -39 88 0 7 -204 414 -259 518 -90 168 -201 367 -257 459 -30 49 -54 90 -54
92 0 1 -46 77 -101 166 -228 368 -508 768 -780 1116 -86 109 -306 381 -319
393 -3 3 -47 55 -99 115 -95 111 -109 126 -301 335 -260 285 -757 765 -1056
1020 -194 166 -225 193 -380 316 -562 450 -1247 907 -1809 1209 -49 26 -112
60 -140 75 -127 70 -459 232 -645 314 -58 26 -118 53 -135 61 -16 7 -59 25
-95 40 -59 25 -100 42 -155 66 -142 62 -551 207 -825 293 -63 20 -128 40 -145
45 -85 28 -373 105 -540 146 -241 58 -204 50 -395 91 -218 46 -391 78 -701
129 -125 20 -460 64 -574 75 -49 5 -157 16 -240 24 -151 15 -190 18 -495 36
-447 26 -893 34 -1145 19z m1188 -409 c222 -11 325 -20 647 -56 257 -29 314
-37 630 -89 374 -62 937 -189 1240 -279 25 -8 63 -19 85 -25 340 -94 1033
-344 1322 -477 30 -13 56 -24 58 -24 2 0 48 -20 101 -45 53 -25 98 -45 100
-45 9 0 488 -238 594 -296 461 -247 1022 -596 1369 -852 228 -168 278 -206
406 -306 210 -164 489 -414 780 -697 93 -91 184 -179 202 -195 82 -76 495
-509 752 -790 400 -435 732 -874 1076 -1424 102 -162 149 -240 258 -430 23
-41 97 -175 151 -273 45 -82 255 -502 286 -572 12 -27 38 -84 57 -125 64 -139
151 -345 223 -531 40 -101 76 -193 80 -204 33 -81 155 -438 204 -600 21 -66
41 -131 45 -145 5 -14 14 -43 20 -65 6 -22 22 -80 36 -130 14 -49 30 -106 36
-125 32 -114 139 -576 169 -735 77 -395 104 -570 150 -975 45 -406 48 -437 62
-655 17 -265 17 -1207 0 -1460 -24 -362 -64 -744 -122 -1160 -28 -193 -142
-807 -170 -905 -5 -19 -16 -64 -24 -100 -46 -199 -104 -422 -167 -635 -54
-186 -218 -674 -259 -770 -4 -11 -18 -47 -30 -80 -13 -33 -29 -76 -37 -95 -8
-19 -19 -44 -23 -55 -31 -78 -55 -136 -70 -170 -10 -22 -29 -67 -43 -100 -81
-192 -278 -600 -399 -825 -296 -550 -606 -1034 -962 -1504 -83 -109 -160 -210
-171 -225 -189 -256 -629 -747 -1009 -1126 -483 -482 -926 -869 -1415 -1234
-419 -314 -776 -549 -1218 -802 -38 -21 -138 -77 -238 -131 -160 -87 -593
-297 -730 -355 -33 -14 -78 -33 -101 -44 -22 -10 -65 -27 -95 -39 -30 -11 -72
-29 -94 -39 -41 -19 -248 -98 -415 -158 -191 -69 -509 -171 -695 -223 -373
-105 -655 -173 -1005 -244 -436 -88 -494 -96 -895 -135 -498 -49 -788 -67
-1296 -81 -730 -21 -1185 -9 -1584 40 -44 6 -136 17 -205 25 -180 22 -453 63
-570 85 -25 4 -83 15 -130 24 -197 37 -276 53 -515 106 -131 30 -340 81 -405
100 -19 6 -98 28 -175 49 -181 52 -351 103 -490 149 -161 54 -508 179 -560
202 -11 5 -76 32 -145 59 -306 121 -708 308 -1030 478 -1078 573 -2027 1284
-2915 2184 -303 307 -638 676 -805 885 -14 17 -70 87 -126 155 -396 488 -817
1114 -1122 1672 -18 31 -45 81 -61 110 -69 125 -341 678 -341 692 0 2 -13 32
-29 67 -87 190 -222 524 -282 698 -17 47 -34 94 -39 105 -15 34 -150 447 -170
520 -5 17 -31 110 -59 208 -42 145 -103 387 -161 632 -83 353 -166 844 -194
1150 -52 550 -61 800 -61 1625 0 894 17 1237 81 1650 100 642 209 1139 367
1680 21 74 43 149 47 165 88 326 326 952 545 1435 125 274 398 788 575 1079
317 524 759 1134 1129 1557 20 22 63 72 96 110 293 337 837 891 1155 1175 684
610 1281 1047 2020 1476 222 130 293 168 590 316 243 122 299 148 460 221 92
41 269 116 275 116 3 0 27 10 53 21 63 29 96 42 167 69 33 12 69 26 80 30 248
106 916 312 1340 414 266 65 257 63 390 90 689 143 1114 194 1910 230 348 16
1167 19 1438 6z"/>
<path d="M12025 24114 c-33 -2 -170 -8 -305 -14 -212 -9 -378 -21 -660 -45
-36 -3 -99 -10 -140 -15 -391 -50 -504 -65 -625 -85 -323 -55 -455 -81 -674
-131 -86 -20 -174 -40 -196 -45 -39 -8 -145 -36 -295 -77 -414 -115 -904 -282
-1157 -393 -24 -11 -46 -19 -49 -19 -6 0 -24 -8 -116 -49 -26 -11 -50 -21 -52
-21 -3 0 -40 -16 -83 -36 -43 -19 -109 -49 -148 -67 -117 -53 -681 -339 -825
-419 -605 -335 -1118 -682 -1605 -1086 -517 -429 -1162 -1059 -1621 -1582
-795 -906 -1410 -1867 -1887 -2950 -61 -139 -188 -457 -233 -583 -29 -84 -109
-314 -129 -372 -28 -86 -106 -346 -140 -470 -19 -71 -39 -143 -44 -160 -5 -16
-16 -59 -25 -95 -8 -36 -28 -121 -45 -190 -26 -109 -77 -350 -110 -520 -6 -30
-24 -136 -41 -235 -157 -930 -184 -1652 -114 -3030 16 -309 18 -338 29 -470
14 -165 66 -519 106 -720 5 -27 23 -117 39 -200 63 -328 147 -673 235 -975 70
-239 161 -527 192 -610 3 -8 20 -55 38 -105 73 -202 105 -287 159 -420 364
-895 852 -1747 1441 -2520 50 -66 108 -142 128 -168 84 -110 296 -367 438
-529 880 -1006 1888 -1842 3008 -2495 285 -167 669 -370 871 -461 25 -11 94
-43 153 -71 60 -28 110 -51 112 -51 2 0 37 -16 79 -35 72 -33 434 -177 626
-249 140 -52 491 -168 595 -196 17 -5 68 -20 115 -33 513 -152 1183 -286 1740
-347 142 -15 520 -60 605 -72 119 -16 870 -22 1175 -9 886 37 1360 66 1575 96
88 12 363 56 405 65 25 4 74 14 110 20 36 6 83 15 105 20 22 5 123 27 225 50
275 59 580 135 705 175 22 7 74 22 115 34 401 116 1037 353 1398 522 46 21 86
39 88 39 7 0 445 218 519 258 39 21 111 60 160 87 50 27 151 84 225 128 74 44
149 87 165 97 212 122 649 418 960 651 593 443 1305 1098 1822 1674 72 81 216
247 367 425 46 53 316 400 382 490 557 755 1039 1613 1364 2430 23 58 45 114
50 125 5 11 25 65 45 120 20 55 41 109 46 120 21 48 177 530 224 695 19 69 39
139 44 155 55 178 184 766 236 1075 14 85 30 180 35 210 9 50 45 329 70 540
84 714 93 1845 20 2615 -29 312 -50 485 -100 820 -50 329 -167 878 -260 1210
-133 478 -261 855 -429 1264 -49 119 -103 245 -119 281 -16 36 -39 88 -52 115
-304 669 -758 1431 -1208 2030 -558 742 -1162 1390 -1897 2034 -156 137 -489
404 -660 531 -55 40 -134 99 -175 129 -92 68 -548 371 -697 463 -236 145 -532
308 -812 449 -259 129 -307 152 -646 298 -11 5 -36 16 -55 24 -19 9 -60 25
-90 36 -30 12 -64 26 -75 31 -75 33 -442 166 -585 212 -52 16 -120 38 -150 48
-235 80 -814 230 -1115 290 -498 99 -835 148 -1390 200 -251 24 -635 41 -1030
44 -231 2 -447 2 -480 0z m1180 -197 c305 -22 505 -42 765 -77 36 -5 88 -12
115 -15 66 -8 399 -62 500 -81 139 -27 279 -54 320 -64 22 -5 60 -13 85 -19
25 -6 77 -18 115 -26 96 -22 423 -104 460 -116 17 -5 91 -27 165 -48 239 -70
463 -143 735 -241 122 -44 444 -175 585 -237 80 -36 165 -74 190 -85 69 -31
447 -220 515 -258 33 -18 80 -44 105 -58 566 -312 1165 -719 1705 -1161 354
-289 554 -470 913 -825 361 -357 619 -639 901 -986 79 -96 151 -184 160 -195
61 -75 309 -411 413 -561 498 -716 883 -1427 1178 -2179 45 -115 86 -219 91
-230 50 -123 208 -613 270 -840 6 -22 15 -51 20 -65 11 -33 81 -315 114 -460
100 -435 149 -712 220 -1260 19 -147 51 -506 67 -760 19 -302 16 -1120 -5
-1436 -17 -254 -38 -494 -57 -639 -31 -238 -62 -466 -70 -510 -5 -27 -21 -117
-36 -200 -42 -244 -77 -408 -155 -732 -69 -285 -211 -775 -269 -928 -11 -27
-37 -102 -59 -165 -37 -110 -113 -313 -131 -355 -5 -11 -23 -56 -41 -100 -17
-44 -39 -98 -49 -121 -11 -22 -28 -63 -38 -90 -11 -27 -34 -80 -52 -119 -17
-38 -39 -86 -48 -105 -161 -354 -386 -778 -607 -1140 -672 -1105 -1717 -2266
-2835 -3150 -271 -215 -449 -344 -750 -545 -215 -144 -476 -307 -620 -388 -19
-10 -64 -36 -100 -57 -36 -20 -105 -59 -155 -85 -49 -26 -117 -62 -150 -80
-87 -47 -288 -148 -375 -188 -41 -19 -104 -48 -140 -65 -363 -167 -823 -344
-1225 -470 -331 -104 -547 -163 -875 -238 -36 -8 -83 -19 -105 -24 -22 -6
-123 -26 -225 -45 -102 -20 -207 -40 -235 -45 -81 -16 -291 -48 -425 -65 -69
-8 -156 -20 -195 -25 -594 -81 -1863 -90 -2760 -20 -204 16 -437 42 -585 66
-366 57 -741 132 -1050 209 -80 20 -162 41 -183 46 -36 9 -310 87 -448 127
-105 31 -542 179 -594 202 -11 5 -54 21 -95 36 -41 15 -93 35 -115 44 -22 10
-76 32 -120 50 -44 18 -104 43 -133 56 -29 13 -55 24 -57 24 -3 0 -53 23 -111
50 -58 28 -108 50 -111 50 -11 0 -509 253 -617 313 -65 37 -120 67 -122 67 -3
0 -21 11 -42 23 -20 13 -71 44 -112 68 -769 447 -1560 1061 -2299 1785 -941
921 -1592 1768 -2173 2828 -95 174 -277 547 -375 771 -174 394 -389 991 -483
1340 -5 17 -19 71 -33 120 -49 182 -75 283 -111 435 -20 85 -41 173 -46 195
-48 200 -147 770 -179 1030 -47 378 -64 781 -64 1525 0 1039 26 1378 163 2155
8 48 74 372 90 445 59 271 179 718 250 930 10 30 25 78 33 105 14 44 97 284
157 450 30 84 149 382 171 430 10 22 36 81 57 130 77 177 98 223 214 455 227
455 405 767 666 1165 181 275 497 710 641 881 14 17 33 40 41 50 25 33 110
134 199 239 396 463 969 1033 1441 1431 757 640 1663 1227 2495 1616 207 97
296 138 300 138 3 0 28 11 57 24 217 98 746 294 993 366 33 10 105 32 160 48
55 16 111 33 125 36 14 4 39 11 55 16 153 44 461 120 650 160 55 11 118 25
140 30 63 15 184 37 435 81 351 60 865 117 1260 139 107 6 213 12 235 14 109
10 1118 -4 1310 -17z"/>
<path d="M11507 23801 c-91 -10 -121 -33 -125 -94 -4 -61 26 -121 99 -202 71
-79 85 -105 104 -195 18 -84 19 -185 5 -371 -31 -393 -86 -620 -174 -713 -68
-72 -86 -101 -86 -138 0 -40 27 -74 68 -85 50 -14 450 -6 562 11 164 25 260
56 260 86 0 18 -33 41 -77 53 -51 13 -116 64 -139 109 -46 89 -76 338 -54 454
32 169 126 176 201 16 60 -127 102 -162 193 -162 54 0 80 23 91 78 13 63 13
411 0 484 -21 123 -62 136 -157 49 -117 -107 -177 -126 -237 -76 -53 45 -66
99 -66 280 l0 160 175 3 c278 5 317 -10 418 -156 65 -94 91 -124 146 -166 78
-59 153 -45 170 32 3 15 9 127 13 249 5 186 4 223 -8 227 -21 7 -312 36 -519
52 -220 16 -767 26 -863 15z"/>
<path d="M11830 21629 c-703 -24 -1095 -80 -1825 -261 -280 -69 -747 -209
-860 -257 -11 -5 -99 -39 -195 -76 -96 -37 -193 -76 -215 -85 -22 -10 -67 -29
-100 -43 -140 -59 -487 -228 -630 -307 -338 -187 -565 -328 -846 -525 -132
-93 -214 -154 -384 -284 -473 -363 -1065 -924 -1466 -1391 -86 -100 -267 -321
-304 -371 -11 -15 -58 -78 -105 -140 -397 -528 -738 -1111 -1005 -1714 -7 -16
-24 -55 -37 -85 -14 -30 -53 -127 -88 -215 -34 -88 -66 -169 -70 -180 -19 -43
-100 -284 -153 -450 -90 -280 -200 -719 -252 -1000 -75 -409 -97 -625 -135
-1330 -13 -244 -13 -766 0 -1010 21 -395 31 -545 46 -700 14 -161 45 -402 64
-505 31 -170 61 -330 70 -365 5 -22 19 -80 30 -130 40 -172 52 -221 97 -380
89 -320 223 -713 328 -960 7 -16 41 -97 76 -180 128 -303 407 -834 609 -1155
636 -1013 1492 -1927 2515 -2686 93 -69 481 -334 490 -334 2 0 35 -20 73 -44
214 -139 684 -393 932 -506 41 -18 107 -48 147 -66 82 -38 460 -189 573 -229
457 -162 962 -295 1470 -385 252 -45 598 -87 900 -110 172 -13 1145 -13 1350
0 85 5 238 14 340 20 307 18 580 48 765 85 39 7 120 23 180 35 61 12 171 35
245 52 74 17 155 35 180 40 39 9 355 93 448 119 17 5 47 13 65 18 143 40 428
132 547 178 121 47 365 146 425 173 33 15 83 37 110 50 28 12 151 73 275 135
854 426 1639 992 2359 1700 651 640 1180 1329 1634 2125 96 168 285 542 364
720 153 343 312 772 403 1090 12 41 26 86 30 100 20 61 96 374 126 515 21 99
25 124 58 310 24 135 32 193 66 430 87 626 104 1447 45 2200 -59 753 -210
1502 -435 2162 -56 163 -202 540 -254 655 -13 29 -47 105 -76 168 -106 234
-235 480 -420 805 -54 94 -148 244 -265 420 -484 731 -1061 1385 -1760 1994
-70 61 -307 252 -385 311 -47 36 -87 67 -90 70 -7 8 -120 90 -305 220 -228
160 -574 372 -865 529 -134 73 -601 301 -616 301 -2 0 -32 13 -67 29 -35 16
-135 57 -222 91 -88 34 -169 66 -180 70 -11 5 -40 16 -65 24 -25 8 -79 27
-120 41 -97 35 -348 115 -455 145 -524 150 -962 235 -1450 284 -492 50 -1126
66 -1735 45z m1175 -180 c762 -58 1330 -158 2000 -351 215 -62 636 -206 697
-239 10 -5 22 -9 28 -9 5 0 34 -11 64 -25 30 -14 57 -25 60 -25 3 0 29 -11 58
-24 29 -13 80 -35 113 -49 134 -56 428 -198 612 -296 602 -319 1208 -744 1763
-1237 181 -160 569 -547 722 -719 141 -159 311 -358 347 -405 14 -19 53 -69
87 -110 92 -113 280 -369 376 -512 148 -219 317 -505 481 -813 70 -133 263
-519 296 -595 13 -30 36 -82 51 -115 139 -307 258 -633 330 -900 5 -16 20 -73
34 -125 36 -133 83 -326 107 -439 11 -53 24 -114 29 -136 33 -142 90 -505 130
-830 13 -105 37 -423 50 -655 32 -585 -10 -1332 -110 -1974 -22 -140 -24 -149
-71 -386 -99 -505 -272 -1091 -414 -1405 -7 -16 -25 -59 -40 -95 -81 -196
-305 -657 -432 -890 -430 -788 -696 -1150 -1367 -1860 -192 -203 -312 -321
-676 -665 -83 -78 -338 -297 -455 -390 -256 -203 -732 -519 -1045 -693 -25
-14 -63 -36 -85 -49 -83 -48 -518 -264 -661 -329 -335 -150 -809 -323 -1109
-404 -16 -5 -57 -16 -90 -25 -331 -90 -681 -165 -1012 -215 -35 -6 -91 -14
-125 -20 -90 -14 -349 -37 -588 -52 -313 -20 -1305 -16 -1640 5 -236 16 -473
38 -556 52 -16 2 -101 16 -189 30 -220 35 -577 109 -750 155 -262 70 -366 101
-590 176 -292 97 -610 223 -880 349 -140 65 -439 216 -503 254 -29 17 -54 31
-56 31 -6 0 -264 152 -356 210 -135 85 -390 253 -455 302 -361 267 -510 386
-785 627 -356 311 -959 949 -1195 1262 -11 14 -72 95 -136 180 -308 408 -577
838 -803 1283 -85 168 -111 224 -188 396 -16 36 -35 79 -43 95 -92 205 -246
630 -333 920 -87 288 -182 677 -227 930 -9 50 -20 110 -25 135 -40 195 -75
538 -110 1070 -13 203 -13 910 0 1120 46 728 95 1066 241 1670 115 473 306
1019 531 1520 107 238 286 579 433 825 180 300 335 532 532 794 266 355 508
636 827 960 683 692 1309 1178 2059 1600 195 110 572 297 742 368 33 14 78 33
100 43 33 15 123 51 220 90 11 4 34 13 50 20 153 62 598 211 780 260 17 5 73
20 125 34 623 170 1351 281 2000 306 253 10 839 4 1025 -11z"/>
<path d="M17465 18824 c-117 -30 -243 -137 -420 -359 -81 -102 -186 -256 -265
-390 -107 -182 -277 -530 -340 -695 -11 -30 -25 -64 -30 -75 -12 -26 -74 -199
-90 -250 -7 -22 -16 -50 -21 -63 -11 -29 -72 -248 -93 -332 -17 -71 -46 -243
-65 -385 -7 -49 -14 -99 -17 -111 -4 -21 -10 -21 -271 -28 -148 -3 -347 -8
-443 -11 -96 -2 -312 -7 -479 -11 l-304 -7 7 279 c9 364 24 813 32 938 13 213
44 286 179 421 128 128 305 242 540 347 33 14 90 40 128 57 37 16 67 33 67 36
0 13 -62 252 -76 295 -24 73 -60 125 -106 155 -42 28 -47 29 -248 39 -125 6
-1432 10 -3335 10 l-3130 1 0 -170 c0 -188 3 -200 68 -265 19 -19 65 -53 101
-75 171 -103 274 -170 320 -207 140 -114 286 -276 362 -403 127 -212 149 -362
149 -1025 l0 -425 -605 0 c-525 1 -613 3 -668 17 -76 20 -106 38 -133 81 -33
55 -38 95 -43 367 -5 292 -14 416 -46 607 -85 505 -285 937 -537 1163 -118
104 -203 126 -468 117 -285 -9 -440 -53 -593 -170 -190 -144 -283 -445 -253
-814 26 -303 71 -455 168 -563 52 -58 141 -105 228 -121 104 -19 295 5 412 52
231 94 384 209 436 329 53 122 87 300 113 593 4 42 10 77 14 77 13 0 80 -173
95 -245 14 -70 51 -371 59 -495 3 -36 9 -175 15 -310 6 -135 15 -339 21 -453
5 -114 6 -215 3 -224 -6 -14 -88 -15 -877 -9 -479 3 -891 8 -916 10 -197 20
-255 28 -324 46 -161 41 -214 94 -271 274 -36 113 -77 161 -147 171 -27 4 -63
4 -82 1 -83 -16 -85 -33 -86 -779 l0 -629 114 4 c134 4 148 11 172 94 23 79
81 160 205 289 l112 115 1053 0 c997 0 1054 -1 1054 -17 0 -10 -5 -92 -10
-183 -6 -91 -15 -257 -20 -370 -19 -388 -56 -988 -70 -1115 -5 -49 -12 -119
-15 -155 -3 -36 -10 -96 -15 -135 -5 -38 -17 -133 -25 -210 -23 -205 -52 -448
-66 -550 -5 -38 -20 -164 -34 -280 -14 -115 -30 -239 -36 -275 -5 -36 -21
-146 -34 -245 -14 -99 -30 -207 -36 -240 -22 -128 -30 -175 -55 -325 -24 -147
-103 -556 -124 -647 -6 -24 -14 -62 -20 -85 -82 -369 -209 -801 -290 -993 -48
-113 -117 -261 -143 -307 -17 -31 -59 -104 -92 -162 -33 -58 -64 -106 -70
-106 -5 0 -50 50 -100 111 -223 274 -311 434 -356 643 -22 106 -25 260 -7 478
6 82 9 151 5 154 -8 9 -266 -81 -340 -118 -264 -132 -589 -430 -667 -612 -24
-58 -27 -124 -5 -133 9 -3 54 3 100 12 193 41 341 -14 524 -194 126 -124 259
-293 406 -516 102 -154 118 -188 110 -226 -15 -65 -227 -258 -425 -384 -252
-161 -427 -209 -760 -209 -154 0 -202 4 -288 23 -226 49 -372 139 -435 267
-16 34 -18 47 -9 56 8 8 63 12 169 13 136 1 166 4 217 23 137 51 240 141 300
264 49 98 65 163 72 283 11 183 -39 328 -154 443 -181 183 -455 201 -716 48
-106 -61 -241 -201 -289 -297 -187 -380 -28 -835 425 -1215 113 -95 188 -145
295 -198 479 -239 985 -132 1585 332 141 109 231 173 283 201 l40 22 31 -36
c38 -43 94 -154 125 -250 31 -95 29 -218 -6 -380 -101 -458 -80 -518 140 -411
124 61 229 124 365 219 347 243 687 548 667 600 -6 15 -104 30 -337 52 -381
35 -441 54 -516 160 -47 66 -199 364 -196 382 2 7 21 52 44 100 59 127 268
593 268 598 0 3 14 34 30 70 17 36 30 68 30 71 0 3 16 42 34 87 60 142 141
364 215 587 88 266 83 248 125 405 20 72 40 144 45 160 9 30 41 159 80 325 17
72 41 192 101 505 5 28 21 129 34 225 14 96 30 204 36 240 16 110 38 305 59
525 55 579 68 791 96 1565 22 628 50 1134 66 1217 8 39 17 57 37 71 63 44 98
45 1097 24 l310 -7 3 -494 c1 -285 -2 -499 -7 -504 -9 -9 -28 -10 -261 -22
-115 -5 -265 6 -330 26 -108 32 -217 114 -258 195 -11 22 -34 77 -52 122 -54
140 -136 203 -244 189 -50 -7 -67 -29 -66 -87 2 -52 -8 -832 -14 -1147 l-4
-213 119 0 c126 0 170 11 184 47 3 10 10 56 15 102 7 67 15 94 42 138 65 108
212 183 392 199 84 7 457 -4 475 -15 15 -10 17 -344 2 -434 -29 -170 -96 -295
-191 -358 -30 -20 -93 -49 -140 -64 -104 -34 -133 -53 -158 -108 -28 -58 -49
-226 -31 -238 16 -10 1428 -12 1453 -3 12 5 15 15 12 38 -3 17 -10 69 -17 115
-11 77 -15 87 -53 126 -33 35 -57 47 -126 69 -119 37 -165 63 -214 117 -83 92
-112 235 -118 579 l-3 165 235 12 c271 15 355 8 432 -34 110 -60 248 -252 248
-345 0 -88 36 -108 196 -108 l117 0 -7 428 c-13 902 -17 989 -38 1012 -36 39
-115 17 -189 -52 -48 -44 -83 -99 -110 -173 -67 -182 -192 -270 -420 -295 -57
-7 -133 -9 -169 -6 -36 3 -101 6 -145 7 -44 0 -97 3 -118 6 l-37 6 2 501 3
501 410 6 c226 3 615 9 865 13 250 3 484 9 519 12 47 4 66 2 72 -8 11 -17 11
-6369 1 -6386 -7 -10 -159 -12 -728 -10 l-719 3 0 355 c1 323 3 364 22 451 51
234 156 346 369 394 149 33 214 69 214 120 0 33 -34 70 -77 83 -102 30 -754
42 -1211 22 -186 -9 -229 -13 -260 -29 -53 -27 -76 -56 -76 -96 0 -40 25 -64
66 -65 54 0 135 -23 207 -58 88 -42 224 -170 260 -245 55 -115 79 -321 77
-677 l-1 -255 -220 -3 c-121 -2 -290 2 -375 8 -389 29 -534 124 -620 405 -24
79 -69 156 -105 179 -13 9 -38 16 -55 16 -43 0 -58 -41 -70 -193 -12 -163 -13
-1059 0 -1217 11 -150 22 -188 58 -197 54 -13 118 54 166 173 80 197 140 270
278 333 171 80 323 98 672 81 132 -6 242 -13 244 -15 10 -10 31 -401 26 -485
-16 -267 -79 -461 -190 -588 -58 -66 -167 -122 -240 -122 -64 -1 -134 -17
-156 -37 -24 -22 -33 -94 -16 -129 26 -56 42 -58 713 -62 619 -3 800 3 871 33
29 12 34 19 34 48 0 47 -50 91 -128 112 -172 48 -299 137 -389 271 -85 129
-93 180 -93 631 0 193 4 354 8 357 9 5 849 -8 1199 -20 l212 -6 5 -42 c3 -22
8 -273 11 -556 3 -283 10 -746 15 -1029 5 -283 7 -518 4 -523 -3 -4 -493 -8
-1089 -8 -596 0 -1086 -4 -1089 -8 -2 -4 -12 -406 -20 -892 -17 -960 -21
-1085 -42 -1203 -17 -101 -36 -139 -98 -193 -61 -53 -201 -128 -279 -148 -160
-42 -231 -116 -174 -181 23 -28 28 -29 158 -37 188 -13 941 2 1169 23 242 21
350 53 325 96 -16 26 -128 79 -220 104 -44 12 -94 27 -112 35 -44 18 -179 148
-218 209 -69 109 -75 194 -75 1056 l0 708 33 5 c77 11 1728 32 1738 22 6 -7
-18 -718 -31 -911 -13 -191 -27 -271 -59 -339 -56 -115 -217 -240 -365 -283
-90 -25 -130 -49 -159 -94 -17 -25 -16 -27 0 -47 12 -15 43 -27 93 -38 65 -15
156 -17 695 -17 693 -1 793 6 827 57 12 17 10 22 -17 54 -29 35 -96 69 -220
112 -116 41 -160 67 -219 129 -126 136 -160 353 -154 999 l3 384 155 -1 c464
-2 1586 -25 1594 -32 11 -10 10 -142 -9 -839 -13 -457 -27 -682 -50 -785 -48
-214 -129 -310 -307 -364 -134 -41 -206 -72 -237 -102 -57 -54 -31 -90 81
-109 132 -23 1088 -38 1360 -21 127 7 158 21 158 68 0 66 -51 106 -187 147
-124 38 -289 171 -339 272 -15 32 -32 91 -40 146 -12 82 -37 533 -33 620 4
115 -22 1383 -29 1390 -4 4 -482 9 -1062 10 l-1055 3 0 1090 0 1090 430 3
c557 3 818 -8 898 -38 100 -38 127 -113 127 -357 0 -296 -54 -514 -165 -665
-70 -96 -194 -168 -288 -168 -94 0 -155 -39 -181 -115 -15 -43 -11 -72 13 -84
46 -25 202 -31 777 -31 610 0 777 7 822 36 46 30 16 106 -61 152 -18 11 -75
34 -127 52 -124 42 -155 59 -218 115 -61 55 -111 150 -143 270 -20 73 -22 113
-26 458 l-5 377 169 0 c214 0 475 -16 578 -34 152 -27 221 -61 310 -150 94
-94 151 -203 165 -315 10 -78 35 -115 79 -119 41 -4 56 8 70 61 17 67 20 118
27 557 7 442 -6 887 -28 954 -6 21 -22 45 -35 53 -21 14 -26 14 -48 -1 -39
-26 -53 -56 -60 -133 -12 -125 -91 -256 -222 -368 -84 -71 -142 -92 -299 -105
-146 -12 -711 -14 -717 -3 -7 12 31 761 42 828 13 79 28 122 60 166 60 82 184
161 316 201 28 9 70 22 94 29 89 27 140 110 94 151 -48 42 -71 43 -708 42
-483 -1 -637 -5 -740 -17 -142 -17 -182 -28 -192 -52 -12 -34 98 -113 202
-145 78 -24 180 -85 236 -142 100 -99 153 -247 169 -468 14 -197 13 -560 -2
-564 -7 -3 -249 -9 -538 -15 -289 -6 -605 -14 -702 -18 l-178 -6 0 3201 0
3202 925 0 925 0 0 -530 0 -530 -189 0 c-104 0 -224 5 -266 11 -235 32 -355
122 -456 338 -71 151 -109 191 -183 191 -65 0 -97 -66 -111 -230 -3 -36 -10
-236 -15 -445 -5 -209 -12 -467 -15 -572 l-5 -193 100 0 c150 0 184 26 241
180 38 106 70 159 121 205 97 88 227 115 557 115 l224 0 -6 -247 c-4 -205 -9
-261 -26 -325 -26 -100 -59 -164 -112 -217 -52 -51 -71 -61 -178 -96 -141 -46
-176 -100 -183 -285 l-3 -65 685 -3 c377 -1 695 0 707 3 20 5 21 10 17 63 -12
137 -25 185 -63 223 -27 27 -50 39 -90 48 -142 30 -219 100 -279 251 -40 99
-58 222 -77 525 -4 50 -9 98 -12 108 -5 18 7 19 279 15 224 -4 295 -8 341 -21
177 -51 248 -121 311 -307 52 -154 77 -173 224 -168 l93 3 -1 720 c0 396 0
724 0 728 0 5 -52 7 -115 5 -138 -4 -154 -13 -166 -102 -17 -129 -150 -316
-266 -376 -73 -37 -141 -49 -393 -70 -134 -11 -254 -20 -267 -20 l-23 0 0 535
0 535 725 0 725 0 0 -202 c0 -190 13 -700 25 -958 18 -410 26 -572 35 -705 5
-82 14 -226 20 -320 10 -165 22 -327 45 -590 51 -585 85 -882 165 -1420 70
-466 191 -995 317 -1380 101 -312 177 -491 365 -865 76 -151 138 -278 138
-283 0 -4 -22 -38 -48 -75 -27 -37 -93 -129 -147 -205 l-98 -139 -46 6 c-25 4
-104 11 -176 16 -71 5 -191 14 -265 20 -74 6 -189 10 -255 8 l-120 -3 1 -36
c5 -174 508 -816 854 -1089 74 -58 244 -140 292 -140 77 0 88 80 59 400 -18
191 -10 438 16 536 26 94 59 150 99 169 41 19 58 13 167 -60 81 -54 111 -77
349 -271 338 -276 725 -532 868 -575 385 -114 956 36 1278 336 135 126 209
250 280 475 43 133 56 437 27 606 -39 227 -126 390 -267 504 -154 124 -364
180 -676 180 -148 0 -338 -18 -384 -35 -37 -14 -84 -233 -94 -435 -15 -317
102 -504 356 -565 126 -30 237 -30 468 0 117 15 215 25 218 23 4 -4 -57 -232
-81 -303 -17 -51 -62 -128 -96 -164 -97 -102 -395 -234 -597 -263 -95 -14
-197 -3 -303 32 -409 135 -870 537 -1000 873 -42 110 -48 178 -20 250 36 98
101 218 186 347 93 140 170 226 212 236 103 26 695 310 691 331 -7 29 -539
512 -743 674 -95 76 -225 165 -252 173 -18 6 -23 1 -31 -26 -6 -18 -13 -64
-17 -103 -4 -38 -8 -81 -9 -95 -2 -14 -6 -86 -10 -160 -14 -279 -36 -438 -72
-531 -51 -130 -195 -289 -262 -289 -27 0 -85 62 -120 128 -69 132 -197 483
-276 762 -20 69 -40 139 -45 155 -9 27 -77 306 -115 465 -14 58 -35 155 -81
375 -37 180 -112 602 -145 820 -16 106 -29 188 -40 258 -12 72 -47 345 -60
462 -5 44 -16 139 -24 210 -17 145 -61 638 -72 815 -4 63 -9 131 -11 150 -3
19 -7 362 -10 763 l-5 727 1004 0 c1226 0 1367 -7 1484 -75 93 -54 192 -186
238 -317 21 -56 56 -93 97 -102 18 -3 72 -6 121 -6 l89 0 -4 648 c-3 651 -5
688 -40 736 -17 23 -82 31 -137 16 -60 -16 -101 -62 -140 -157 -50 -121 -59
-138 -95 -181 -64 -74 -202 -119 -420 -137 -44 -4 -96 -9 -115 -11 -68 -9
-2022 -16 -2030 -8 -11 11 32 392 59 530 60 305 156 622 241 800 41 84 87 144
113 144 29 0 71 -45 145 -159 131 -199 257 -310 391 -346 80 -21 200 -27 276
-15 238 38 393 214 474 540 65 258 54 329 -91 619 -154 307 -303 508 -410 554
-18 8 -46 20 -63 27 -30 13 -233 23 -270 14z m201 -613 c77 -36 177 -133 227
-218 75 -129 109 -305 71 -363 -31 -47 -109 -122 -146 -141 -51 -26 -110 -24
-156 5 -102 64 -220 242 -256 387 -19 77 -20 119 -5 191 34 161 121 207 265
139z m-10524 -116 c21 -81 42 -294 42 -445 1 -162 1 -166 -26 -211 -118 -201
-374 -166 -489 66 -29 60 -31 69 -27 157 2 66 9 105 23 133 43 88 246 254 382
310 71 30 84 28 95 -10z m3988 -75 c96 -12 198 -41 250 -73 227 -135 401 -404
491 -757 30 -118 78 -406 94 -570 4 -36 8 -81 10 -100 8 -72 26 -297 28 -350
l2 -55 -924 -3 c-733 -2 -926 0 -933 10 -18 30 -3 494 23 683 48 357 162 693
309 911 145 214 267 283 555 313 6 1 49 -4 95 -9z m2325 -21 c246 -51 370
-154 517 -429 91 -173 184 -462 222 -694 33 -199 38 -251 43 -503 l6 -263
-933 0 -933 0 7 123 c14 267 57 687 86 827 66 329 180 564 357 738 108 105
190 161 288 197 65 24 234 25 340 4z m-8604 -8476 c65 -29 114 -76 145 -139
23 -46 26 -63 22 -126 -5 -91 -34 -154 -103 -223 -135 -135 -315 -143 -425
-18 -60 69 -80 133 -80 261 0 125 17 172 74 218 54 43 98 54 216 51 80 -2 116
-8 151 -24z m14464 -98 c255 -38 417 -74 444 -99 38 -34 54 -176 29 -259 -14
-46 -42 -62 -170 -96 -183 -49 -266 -8 -322 160 -21 65 -66 291 -60 301 3 5
13 7 22 4 10 -3 35 -8 57 -11z"/>
<path d="M2602 18025 c-23 -9 -82 -36 -130 -60 -280 -142 -382 -314 -382 -643
0 -231 43 -367 149 -472 93 -92 188 -127 319 -117 128 10 295 65 493 162 200
98 336 145 426 145 51 0 67 -4 90 -24 60 -50 68 -152 19 -227 -46 -69 -129
-108 -337 -157 -139 -32 -190 -53 -231 -90 -25 -23 -28 -33 -28 -88 0 -76 24
-127 93 -195 95 -94 201 -119 302 -70 134 65 408 409 478 601 47 131 63 293
37 378 -34 111 -119 214 -212 257 -117 55 -296 23 -808 -144 -229 -75 -413
-101 -480 -66 -61 32 -62 120 -2 265 26 61 50 99 87 137 76 79 83 78 371 -58
133 -62 127 -63 168 23 42 88 98 255 94 282 -3 22 -84 65 -238 128 -113 47
-209 58 -278 33z"/>
<path d="M21810 17498 c-315 -65 -607 -189 -791 -334 -148 -117 -223 -247
-248 -427 -19 -137 2 -200 119 -357 163 -217 391 -406 572 -474 132 -50 196
-61 343 -61 127 0 148 3 229 29 407 132 610 596 504 1151 -6 33 -24 96 -40
139 -63 180 -174 287 -341 332 -59 16 -276 17 -347 2z m299 -258 c90 -45 175
-148 223 -272 16 -39 21 -77 22 -148 1 -86 -2 -100 -28 -150 -75 -145 -211
-288 -338 -359 -265 -145 -434 -156 -569 -34 -46 41 -84 94 -121 168 -63 125
-81 195 -81 315 0 176 51 252 226 338 154 76 358 152 462 173 65 12 141 1 204
-31z"/>
<path d="M5988 5013 c4 -319 -22 -589 -78 -794 -68 -247 -100 -485 -100 -739
0 -167 12 -277 38 -340 11 -28 69 -90 84 -90 19 0 52 23 76 54 14 17 58 63 97
102 106 104 366 262 575 349 36 15 81 34 100 42 19 8 44 19 55 23 32 14 214
76 275 94 187 55 290 66 550 56 114 -4 146 8 259 101 130 105 165 139 155 148
-5 5 -54 32 -109 61 -55 29 -104 56 -110 60 -5 4 -44 25 -85 48 -41 22 -118
63 -170 92 -227 124 -414 210 -471 216 -50 6 -58 4 -77 -16 -11 -12 -26 -44
-32 -71 -11 -44 -9 -55 21 -141 44 -126 46 -209 7 -260 -40 -52 -181 -156
-224 -164 -43 -8 -127 32 -292 139 -222 144 -254 199 -225 392 17 114 41 178
74 196 13 6 86 16 164 21 96 6 151 14 175 26 121 59 -20 196 -552 536 -92 58
-170 106 -175 106 -4 0 -7 -111 -5 -247z m297 -1197 c24 -36 107 -68 177 -67
62 0 86 -17 56 -42 -126 -103 -248 -177 -292 -177 -37 0 -56 29 -56 84 0 80
59 226 91 226 5 0 16 -11 24 -24z"/>
<path d="M18301 5035 c-171 -56 -351 -211 -351 -304 0 -44 58 -104 160 -165
151 -90 256 -194 314 -312 49 -100 31 -138 -75 -155 -126 -21 -297 7 -679 112
-105 29 -128 32 -275 33 -158 1 -161 1 -218 -29 -135 -68 -311 -323 -383 -555
-20 -65 -28 -113 -31 -205 -5 -117 -4 -121 24 -174 35 -66 76 -91 151 -91 45
0 58 4 81 28 24 24 29 38 35 112 10 128 52 276 121 435 7 17 19 45 26 63 l14
32 285 0 c444 0 541 -17 573 -99 15 -37 15 -47 2 -108 -46 -204 -53 -271 -35
-361 29 -154 126 -246 293 -278 288 -55 523 45 915 389 181 159 332 342 332
404 0 35 -37 51 -143 62 -161 18 -289 79 -451 214 -137 114 -276 295 -354 459
-49 103 -65 155 -92 288 -24 120 -44 165 -81 193 -34 25 -102 30 -158 12z
m436 -1273 c45 -38 223 -235 223 -246 0 -13 -125 -143 -181 -188 -88 -72 -193
-97 -258 -63 -48 24 -64 74 -58 179 7 139 57 244 146 311 56 42 86 43 128 7z"/>
</g>
</svg>
